<svg width="60" height="65" viewBox="0 0 60 65" fill="none" xmlns="http://www.w3.org/2000/svg">
<path fill-rule="evenodd" clip-rule="evenodd" d="M24.5976 0.882291L26.3202 5.6565C26.372 5.79996 26.4926 5.89218 26.6383 5.89964L31.4854 6.14823C31.8151 6.16513 31.9501 6.60216 31.6928 6.81974L27.9103 10.019C27.7966 10.115 27.7505 10.2642 27.7887 10.4123L29.062 15.3401C29.1486 15.6752 28.7954 15.9454 28.5192 15.7551L24.4588 12.9581C24.3368 12.874 24.1878 12.874 24.0657 12.9581L20.0055 15.7551C19.7293 15.9454 19.376 15.6752 19.4627 15.3401L20.7358 10.4122C20.774 10.2641 20.7281 10.1149 20.6144 10.0188L16.8318 6.81961C16.5746 6.60203 16.7095 6.165 17.0392 6.14809L21.8864 5.8995C22.0321 5.89205 22.1526 5.79983 22.2044 5.65637L23.927 0.882158C24.0432 0.559441 24.4813 0.559441 24.5976 0.882291ZM48.0335 41.3162C54.122 41.3162 59.0578 46.5102 59.0578 52.9171C59.0578 59.3241 54.122 64.518 48.0335 64.518C41.945 64.518 37.0092 59.3241 37.0092 52.9171C37.0092 46.5102 41.945 41.3162 48.0335 41.3162ZM46.5855 53.9404L44.1222 51.3483C43.4838 50.6765 42.4482 50.6765 41.8096 51.3483C41.1712 52.02 41.1712 53.1098 41.8096 53.7816L45.4327 57.5942C46.0711 58.266 47.1067 58.266 47.7451 57.5942C49.9289 55.2962 52.0881 52.9722 54.2617 50.6636C54.8956 49.9904 54.8936 48.9041 54.2547 48.2355C53.6156 47.5668 52.5805 47.5687 51.9459 48.2431L46.5855 53.9404ZM6.11911 58.2912L36.0235 58.2911C35.3556 56.6405 34.9858 54.8243 34.9858 52.9171C34.9858 50.0165 35.8414 47.3266 37.3003 45.1099C33.836 41.8597 29.2689 39.884 24.2625 39.884C14.6255 39.884 6.61359 47.2027 4.97031 56.8461C4.84106 57.6036 5.38777 58.2912 6.11911 58.2912ZM24.2625 17.6954C29.7359 17.6954 34.1731 22.3646 34.1731 28.1242C34.1731 33.8839 29.7359 38.5531 24.2625 38.5531C18.7891 38.5531 14.352 33.8839 14.352 28.1242C14.3518 22.3646 18.789 17.6954 24.2625 17.6954ZM41.2947 7.64004C41.1782 7.31719 40.7401 7.31719 40.6236 7.64004L38.9011 12.4143C38.8493 12.5578 38.7287 12.6499 38.583 12.6574L33.7359 12.906C33.4062 12.9229 33.2712 13.3599 33.5285 13.5775L37.311 16.7767C37.4247 16.8729 37.4708 17.022 37.4324 17.1701L36.1593 22.098C36.0727 22.4332 36.4259 22.7033 36.7021 22.513L40.7624 19.716C40.8844 19.6319 41.0334 19.6319 41.1554 19.716L45.2158 22.513C45.492 22.7033 45.8453 22.4331 45.7586 22.098L44.4854 17.1702C44.4471 17.0221 44.4931 16.8731 44.6068 16.7768L48.3893 13.5776C48.6466 13.36 48.5116 12.923 48.1819 12.9061L43.3348 12.6575C43.1891 12.6501 43.0686 12.5578 43.0167 12.4144L41.2947 7.64004ZM7.90062 7.64004C7.78415 7.31719 7.34607 7.31719 7.22973 7.64004L5.50715 12.4143C5.45543 12.5578 5.33478 12.6499 5.18909 12.6574L0.341946 12.906C0.0122525 12.9229 -0.122685 13.3599 0.134544 13.5775L3.91711 16.7767C4.0308 16.8729 4.07683 17.022 4.03851 17.1701L2.76539 22.098C2.67876 22.4332 3.03198 22.7033 3.30818 22.513L7.36846 19.716C7.4905 19.6319 7.63947 19.6319 7.76151 19.716L11.8219 22.513C12.0981 22.7033 12.4513 22.4331 12.3647 22.098L11.0916 17.1702C11.0533 17.0221 11.0993 16.8731 11.213 16.7768L14.9956 13.5776C15.2528 13.36 15.1178 12.923 14.7882 12.9061L9.94101 12.6575C9.79532 12.6501 9.6748 12.5578 9.62295 12.4144L7.90062 7.64004Z" fill="#0056FF"/>
</svg>
