<svg width="56" height="56" viewBox="0 0 56 56" fill="none" xmlns="http://www.w3.org/2000/svg">
<path d="M21.1448 26.198C22.0415 26.198 22.7713 27.146 22.7713 28.3109C22.7713 29.4758 22.0415 30.4237 21.1448 30.4237C20.2481 30.4237 19.5183 29.4758 19.5183 28.3109C19.5183 27.146 20.2481 26.198 21.1448 26.198Z" fill="#0056FF"/>
<path d="M22.7768 17.9579V22.3357C22.2683 22.1005 21.7207 21.9723 21.1503 21.9723C18.4601 21.9723 16.2709 24.8163 16.2709 28.3109C16.2709 31.8056 18.4601 34.6496 21.1503 34.6496C21.7207 34.6496 22.2683 34.5214 22.7768 34.2862V38.664C22.2444 38.8049 21.7001 38.8753 21.1503 38.8753C16.6667 38.8753 13.0179 34.1354 13.0179 28.3109C13.0179 22.4865 16.6667 17.7466 21.1503 17.7466C21.7001 17.7466 22.2444 17.817 22.7768 17.9579Z" fill="#0056FF"/>
<path d="M9.75889 28.3113C9.75889 36.467 14.866 43.1015 21.1443 43.1015C21.6918 43.1015 22.2351 43.0522 22.7707 42.9507V55.7787H17.8913C16.9935 55.7787 16.2648 54.8321 16.2648 53.6658V50.674C14.9344 50.1824 13.6516 49.4866 12.4296 48.5949L10.7933 50.7219C10.1579 51.5473 9.1289 51.5473 8.49349 50.7219L3.89271 44.7453C3.25708 43.9196 3.25958 42.5801 3.89271 41.7577L5.53004 39.6307C4.84258 38.0446 4.30801 36.3783 3.92958 34.65H1.62648C0.728664 34.65 0 33.7034 0 32.5371V24.0856C0 22.9193 0.728664 21.9727 1.62648 21.9727H3.92958C4.30801 20.2444 4.84258 18.578 5.53004 16.9906L3.89271 14.865C3.25958 14.0425 3.25708 12.7031 3.89271 11.8774L8.49349 5.9008C9.1289 5.07537 10.1579 5.07537 10.7933 5.9008L12.4307 8.02776C13.6516 7.13472 14.9344 6.44029 16.2648 5.94869V2.95687C16.2648 1.79056 16.9935 0.843994 17.8913 0.843994H22.7707V13.672C22.2351 13.5705 21.6918 13.5212 21.1443 13.5212C14.866 13.5212 9.75889 20.1557 9.75889 28.3113Z" fill="#0056FF"/>
<path d="M45.7555 2.08048V13.521H54.5624L45.7555 2.08048ZM30.9003 13.521H37.6231C38.5209 13.521 39.2496 14.4676 39.2496 15.6339C39.2496 16.8002 38.5209 17.7467 37.6231 17.7467H30.9003C30.0025 17.7467 29.2738 16.8002 29.2738 15.6339C29.2738 14.4676 30.0025 13.521 30.9003 13.521ZM47.382 43.1012H30.9003C30.0025 43.1012 29.2738 42.1546 29.2738 40.9883C29.2738 39.822 30.0025 38.8755 30.9003 38.8755H47.382C48.2798 38.8755 49.0085 39.822 49.0085 40.9883C49.0085 42.1546 48.2798 43.1012 47.382 43.1012ZM47.382 34.6497H30.9003C30.0025 34.6497 29.2738 33.7031 29.2738 32.5368C29.2738 31.3705 30.0025 30.424 30.9003 30.424H47.382C48.2798 30.424 49.0085 31.3705 49.0085 32.5368C49.0085 33.7031 48.2798 34.6497 47.382 34.6497ZM47.382 26.1982H30.9003C30.0025 26.1982 29.2738 25.2517 29.2738 24.0854C29.2738 22.919 30.0025 21.9725 30.9003 21.9725H47.382C48.2798 21.9725 49.0085 22.919 49.0085 24.0854C49.0085 25.2517 48.2798 26.1982 47.382 26.1982ZM44.129 17.7467C43.2312 17.7467 42.5026 16.8002 42.5026 15.6339V0.84375H26.0209V55.7784H53.8879C54.7857 55.7784 55.5144 54.8319 55.5144 53.6656V17.7467H44.129Z" fill="#0056FF"/>
</svg>
