<svg width="1799" height="785" viewBox="0 0 1799 785" fill="none" xmlns="http://www.w3.org/2000/svg">
<path d="M1704.02 779.849L1703.39 779.851C1678.31 753.669 1653.72 726.865 1629.2 700.151C1548.3 611.981 1468.29 524.778 1374.71 464.19C1158.94 324.489 870.886 326.339 333.183 783.96L332.505 783.962C870.677 325.851 1159 324.024 1375.02 463.882C1468.65 524.503 1548.69 611.723 1629.61 699.915C1654.19 726.709 1678.86 753.596 1704.02 779.849ZM1725.25 779.786L1724.61 779.787C1692.62 749.176 1661.26 717.393 1629.94 685.656C1543.02 597.533 1456.37 509.693 1357.18 448.138C1124.53 303.788 822.703 304.038 285.955 784.114L285.29 784.116C822.483 303.55 1124.59 303.311 1357.48 447.824C1456.73 509.412 1543.39 597.267 1630.33 685.408C1661.74 717.239 1693.17 749.103 1725.25 779.786ZM1750.26 779.711L1749.59 779.713C1710.21 745.067 1671.54 708.433 1632.79 671.718C1539.33 583.168 1445.37 494.14 1339.62 431.446C1089.38 283.084 773.014 282.287 240.907 784.237L240.249 784.239C772.779 281.784 1089.42 282.622 1339.92 431.126C1445.71 493.847 1539.69 582.893 1633.17 671.461C1672.02 708.273 1710.78 744.994 1750.26 779.711ZM1779.08 779.624L1778.38 779.626C1731.27 741.424 1684.8 700.086 1638 658.475C1537.31 568.919 1435.08 477.998 1321.6 413.951C1053.15 262.427 721.602 261.372 198.114 784.365L197.478 784.367C721.36 260.884 1053.19 261.959 1321.9 413.626C1435.42 477.702 1537.67 568.635 1638.38 658.209C1685.27 699.927 1731.85 741.347 1779.08 779.624ZM1798.23 769.345L1798.23 769.896C1747.53 731.251 1697.02 688.916 1645.88 646.041C1537.03 554.797 1425.28 461.116 1302.58 395.444C1015.49 241.795 668.272 241.577 157.645 784.487L157.02 784.489C668.005 241.086 1015.5 241.337 1302.85 395.113C1425.61 460.811 1537.38 554.507 1646.24 645.757C1697.26 688.54 1747.65 730.777 1798.24 769.345L1798.23 769.345ZM1798.15 743.621L1798.15 744.163C1751.55 709.753 1704.57 672.471 1656.8 634.577C1538.66 540.853 1415.73 443.328 1281.9 375.73C975.934 221.19 612.892 223.185 119.623 784.601L119.016 784.603C612.611 222.697 975.939 220.714 1282.16 375.395C1416.04 443.014 1538.99 540.554 1657.15 634.284C1704.8 672.092 1751.66 709.27 1798.17 743.636L1798.15 743.621ZM1798.07 717.828L1798.07 718.364C1756.54 688.595 1714.3 656.757 1671.23 624.294C1542.42 527.198 1406.15 424.488 1258.85 354.646C934.045 200.652 555.409 206.526 84.15 784.707L83.5538 784.709C555.102 206.054 934.022 200.181 1259.1 354.306C1406.46 424.154 1542.74 526.893 1671.57 624.004C1714.52 656.378 1756.64 688.13 1798.09 717.828L1798.07 717.828ZM1797.99 691.976L1798 692.503C1762.68 667.915 1726.6 641.968 1689.76 615.47C1548.69 514.032 1396.35 404.473 1232.64 332.08C889.291 180.244 495.856 191.923 51.3426 784.806L50.7643 784.807C495.553 191.444 889.261 179.78 1232.88 331.731C1396.64 404.145 1549 513.713 1690.09 615.174C1726.82 641.59 1762.79 667.459 1798.01 691.976L1797.99 691.976ZM1797.92 666.064L1797.92 666.585C1770.27 647.86 1741.99 628.38 1713.14 608.493C1558.12 501.664 1386.17 383.176 1202.48 307.983C841.219 160.109 434.457 179.747 21.4158 784.895L20.8483 784.897C434.118 179.28 841.174 159.644 1202.7 307.628C1386.45 382.844 1558.42 501.348 1713.46 608.191C1742.21 627.998 1770.37 647.407 1797.94 666.064L1797.92 666.064ZM1797.84 640.099L1797.84 640.614C1779.68 628.644 1761.2 616.406 1742.4 603.902C1571.76 490.669 1375.66 360.536 1167.53 282.396C791.987 141.397 377.274 169.792 2.34112 772.226L2.33845 771.332C377.315 169.297 792.111 141.003 1167.74 282.035C1375.92 360.198 1572.05 490.349 1742.71 603.597C1761.4 615.999 1779.79 628.166 1797.86 640.099L1797.84 640.099ZM1797.76 614.086L1797.76 614.595L1778.98 602.526C1591.43 481.982 1365.12 336.532 1127.03 255.453C745.544 125.548 333.704 160.993 2.19298 728.816L2.19016 727.875C333.781 160.511 745.686 125.155 1127.22 255.08C1365.39 336.186 1591.71 481.653 1779.29 602.219L1797.76 614.086ZM1797.68 588.028L1797.68 588.535C1597.06 462.853 1343.45 307.525 1080.26 227.391C696.406 110.518 292.142 153.708 2.07124 682.235L2.06832 681.264C292.249 153.234 696.537 110.133 1080.44 227.018C1343.57 307.134 1597.08 462.373 1797.7 588.028L1797.68 588.028ZM1797.6 561.926L1797.61 562.429C1586.02 433.057 1308.93 274.005 1026.66 198.566C644.853 96.5221 253.544 147.572 1.9024 631.924L1.89932 630.9C253.69 147.074 644.999 96.1434 1026.8 198.188C1309.02 273.624 1586.04 432.571 1797.62 561.926L1797.6 561.926ZM1797.53 535.791L1797.53 536.285C1552.6 390.012 1211.73 208.132 881.346 152.623C536.231 94.638 202.589 174.631 1.75614 577.17L1.75297 576.113C202.746 174.131 536.359 94.2593 881.445 152.232C1211.79 207.736 1552.58 389.524 1797.54 535.791L1797.53 535.791ZM1797.45 509.617L1797.45 510.108C1547.84 364.398 1190.59 185.762 850.561 132.396C506.977 78.4756 181.011 152.51 1.57794 517.752L1.57475 516.689C181.222 152.015 507.145 78.0939 850.678 132.015C1190.64 185.363 1547.82 363.912 1797.47 509.617L1797.45 509.617ZM1797.37 483.407L1797.37 483.899C1543.76 339.079 1171.24 164.215 822.284 112.541C686.233 92.398 553.77 90.9755 433.343 117.368C312.916 143.76 204.545 197.958 116.639 289.051C72.7643 334.516 33.9929 389.17 1.38717 454.143L1.38401 453.089C33.9297 388.479 72.5655 334.085 116.261 288.808C204.238 197.643 312.714 143.397 433.23 116.984C553.747 90.5705 686.271 91.9929 822.39 112.15C1171.28 163.816 1543.73 338.599 1797.39 483.407L1797.37 483.407ZM1797.29 457.165L1797.29 457.65C1526.84 306.492 1112.83 125.391 740.54 86.0699C612.843 72.5855 490.055 75.7773 379.662 102.586C269.269 129.395 171.291 179.809 93.1494 260.767C58.32 296.859 27.4418 339.025 1.16687 387.871L1.16386 386.868C27.3572 338.346 58.1068 296.437 92.7572 260.521C170.952 179.495 269.03 129.036 379.506 102.205C489.982 75.3754 612.824 72.1836 740.59 85.6767C1112.85 124.995 1526.78 306.013 1797.31 457.165L1797.29 457.165ZM1797.21 430.89L1797.21 431.375C1600.68 323.796 1324.2 202.52 1043.14 128.45C833.124 73.1162 620.57 44.1277 436.931 66.921C253.292 89.7144 98.6249 164.266 4.27373 315.991C3.16564 317.781 2.06475 319.579 0.971071 321.385L0.968391 320.492C1.92153 318.932 2.87469 317.378 3.82786 315.828C98.2613 163.969 253.093 89.3517 436.851 66.5401C620.608 43.7285 833.205 72.7259 1043.28 128.087C1324.27 202.121 1600.66 323.337 1797.23 430.89L1797.21 430.89ZM1797.13 404.594L1797.13 405.073C1587.05 292.397 1281.17 166.342 976.211 95.7011C768.574 47.6063 561.381 25.1988 385.187 50.2006C222.697 73.2552 86.5741 136.638 0.764736 257.378L0.762343 256.579C86.6767 136.114 222.743 72.862 385.107 49.8108C561.39 24.7968 768.648 47.2071 976.35 95.3195C1281.23 165.94 1587.05 291.935 1797.15 404.594L1797.13 404.594ZM1797.05 378.268L1797.06 378.748C1573.05 260.936 1235.25 130.37 906.112 64.2064C701.912 23.1541 501.062 6.89584 332.827 33.8604C194.69 55.999 78.5554 107.296 0.600818 197.93L0.598728 197.232C78.6293 106.798 194.707 55.591 332.732 33.4676C501.043 6.49088 701.968 22.7549 906.236 63.8189C1235.28 129.968 1573 260.478 1797.07 378.268L1797.05 378.268ZM1796.98 351.921L1796.98 352.395C1558.87 229.56 1187.03 94.9318 834.081 34.2394C634.197 -0.133316 440.383 -10.7954 280.381 17.8302C166.664 38.183 70.035 78.3832 0.457062 144.009L0.455222 143.396C70.0947 77.9035 166.673 37.76 280.294 17.4432C440.371 -11.1975 634.254 -0.535585 834.202 33.8489C1187.05 94.5297 1558.81 229.092 1796.99 351.921L1796.98 351.921ZM381.78 783.815C917.6 348.516 1192.93 344.804 1392.89 479.512C1481.63 539.294 1555.52 626.312 1630.77 714.935C1649.18 736.622 1667.68 758.398 1686.5 779.902L1685.89 779.904C1667.15 758.474 1648.71 736.769 1630.36 715.159C1555.12 626.557 1481.25 539.56 1392.57 479.817C1192.84 345.269 917.795 349.001 382.477 783.813L381.78 783.815Z" fill="white"/>
</svg>
