<svg width="47" height="41" viewBox="0 0 47 41" fill="none" xmlns="http://www.w3.org/2000/svg">
<path d="M42.7079 40.3711H4.55746C2.39033 40.3711 0.629883 38.3961 0.629883 35.9648V4.77734C0.629883 2.34609 2.39033 0.371094 4.55746 0.371094H42.7023C44.8694 0.371094 46.6299 2.34609 46.6299 4.77734V35.9648C46.6354 38.3961 44.875 40.3711 42.7079 40.3711Z" fill="white"/>
<path d="M44.4073 4.74605C44.4073 3.7148 43.6553 2.87105 42.736 2.87105H4.52992C3.6107 2.87105 2.85861 3.7148 2.85861 4.74605V12.2523H44.4018V4.74605H44.4073ZM8.21237 10.7523C6.64134 10.7523 5.36 9.3148 5.36 7.5523C5.36 5.7898 6.64134 4.3523 8.21237 4.3523C9.7834 4.3523 11.0647 5.7898 11.0647 7.5523C11.0647 9.3148 9.78897 10.7523 8.21237 10.7523ZM23.9115 10.3273H15.9672C14.6246 10.3273 13.5327 9.1023 13.5327 7.59605C13.5327 6.0898 14.6246 4.8648 15.9672 4.8648H23.9115C25.2541 4.8648 26.3461 6.0898 26.3461 7.59605C26.3461 9.1023 25.2541 10.3273 23.9115 10.3273Z" fill="#FFD200"/>
<path d="M6.97462 35.6648H23.6208C23.9273 35.6648 24.178 35.3836 24.178 35.0398C24.178 34.6961 23.9273 34.4148 23.6208 34.4148H6.97462C6.50108 34.4148 6.11668 33.9836 6.11668 33.4523V21.4023C6.11668 21.0585 5.86598 20.7773 5.55958 20.7773C5.25317 20.7773 5.00247 21.0585 5.00247 21.4023V33.4586C5.00804 34.6711 5.88827 35.6648 6.97462 35.6648Z" fill="#FFD200"/>
<path d="M8.21154 5.60232C7.25333 5.60232 6.47338 6.47733 6.47338 7.55233C6.47338 8.62733 7.25333 9.50233 8.21154 9.50233C9.16976 9.50233 9.94971 8.62733 9.94971 7.55233C9.94971 6.47733 9.16976 5.60232 8.21154 5.60232Z" fill="white"/>
<path d="M8.21237 4.3523C6.64134 4.3523 5.36 5.7898 5.36 7.5523C5.36 9.3148 6.64134 10.7523 8.21237 10.7523C9.7834 10.7523 11.0647 9.3148 11.0647 7.5523C11.0647 5.7898 9.78897 4.3523 8.21237 4.3523ZM8.21227 9.50239C7.25405 9.50239 6.47411 8.62739 6.47411 7.55239C6.47411 6.47739 7.25405 5.60239 8.21227 5.60239C9.17048 5.60239 9.95043 6.47739 9.95043 7.55239C9.95043 8.62739 9.17048 9.50239 8.21227 9.50239Z" fill="#005BFF"/>
<path d="M23.9106 6.12094H15.9663C15.2421 6.12094 14.646 6.78344 14.646 7.60219C14.646 8.42094 15.2365 9.08344 15.9663 9.08344H23.9106C24.6348 9.08344 25.2309 8.42094 25.2309 7.60219C25.2309 6.78344 24.6348 6.12094 23.9106 6.12094Z" fill="white"/>
<path d="M23.911 4.87106H15.9667C14.6241 4.87106 13.5321 6.09606 13.5321 7.60231C13.5321 9.10856 14.6241 10.3336 15.9667 10.3336H23.911C25.2536 10.3336 26.3455 9.10856 26.3455 7.60231C26.3455 6.09606 25.2536 4.87106 23.911 4.87106ZM23.911 9.07731H15.9667C15.2424 9.07731 14.6463 8.41481 14.6463 7.59606C14.6463 6.77731 15.2369 6.11481 15.9667 6.11481H23.911C24.6352 6.11481 25.2313 6.77731 25.2313 7.59606C25.2313 8.41481 24.6352 9.07731 23.911 9.07731Z" fill="#005BFF"/>
<path d="M42.7357 0.371094H4.5296C2.37919 0.371094 0.629883 2.33359 0.629883 4.74609V35.9961C0.629883 38.4086 2.37919 40.3711 4.5296 40.3711H42.7301C44.8806 40.3711 46.6299 38.4086 46.6299 35.9961V4.74609C46.6354 2.33359 44.8861 0.371094 42.7357 0.371094ZM44.407 35.9961C44.407 37.0273 43.6549 37.8711 42.7357 37.8711H4.5296C3.61038 37.8711 2.85829 37.0273 2.85829 35.9961V13.5023H44.4015V35.9961H44.407ZM44.407 12.2523H2.86387V4.74609C2.86387 3.71484 3.61595 2.87109 4.53517 2.87109L42.736 2.87105C43.6553 2.87105 44.4073 3.7148 44.4073 4.74605L44.407 12.2523Z" fill="#005BFF"/>
<path d="M20.7133 27.6523L14.3456 24.8211L20.7133 22.0898V19.1836L11.5879 23.6148V26.0836L20.7133 30.5336V27.6523ZM26.7746 17.0398H24.8581L21.5601 32.4898H23.4431L26.7746 17.0398ZM36.7579 23.6336L27.6214 19.2023V22.0648L33.9946 24.8461L27.6214 27.6586V30.5461L36.7579 26.0836V23.6336Z" fill="#005BFF"/>
</svg>
