<svg width="46" height="40" viewBox="0 0 46 40" fill="none" xmlns="http://www.w3.org/2000/svg">
<path d="M23 0L0 15.2808L8.783 40H37.217L46 15.2808L23 0Z" fill="white"/>
<path d="M34.7964 32.9429C34.7964 31.8144 33.7923 30.9018 32.5637 30.9018C31.9317 30.9018 31.3588 31.1448 30.9512 31.5282L33.5206 34.7841C34.2707 34.4548 34.7964 33.7528 34.7964 32.9429ZM30.3251 32.9429C30.3251 33.958 31.1402 34.8003 32.1975 34.9569L30.3547 32.6189C30.337 32.7269 30.3251 32.8349 30.3251 32.9429Z" fill="#FFD200"/>
<path d="M33.5194 34.784L30.9501 31.5281C30.6429 31.8196 30.4303 32.1976 30.3535 32.6188L32.1964 34.9568C32.3145 34.973 32.4326 34.9838 32.5566 34.9838C32.9051 34.9838 33.23 34.9136 33.5194 34.784Z" fill="#FFD200"/>
<path d="M24.441 31.6631C24.3052 31.3931 23.9508 31.2743 23.6555 31.3985C23.3602 31.5227 23.2302 31.8467 23.3661 32.1167C23.4547 32.2948 23.5551 32.4676 23.6555 32.635C23.7618 32.8132 23.9626 32.9104 24.1693 32.9104C24.2698 32.9104 24.3643 32.8888 24.4588 32.8402C24.7423 32.6944 24.8427 32.365 24.6832 32.1059C24.6005 31.9655 24.5119 31.8143 24.441 31.6631ZM23.8386 29.757C23.8209 29.5951 23.809 29.4439 23.809 29.3035V29.2873C23.809 28.9903 23.5492 28.7473 23.2243 28.7419H23.2184C22.8935 28.7419 22.6277 28.9795 22.6277 29.2765V29.3035C22.6277 29.4871 22.6396 29.6814 22.6632 29.8812C22.6986 30.1566 22.9526 30.3618 23.2479 30.3618C23.2716 30.3618 23.2952 30.3618 23.3129 30.3564C23.6437 30.324 23.874 30.054 23.8386 29.757ZM26.4611 33.8985C26.3134 33.8121 26.1717 33.7149 26.0358 33.6123C25.7818 33.4233 25.4097 33.4557 25.203 33.6879C24.9963 33.9201 25.0317 34.2603 25.2857 34.4493C25.457 34.5789 25.6342 34.6976 25.8114 34.8056C25.9118 34.865 26.024 34.892 26.1362 34.892C26.3311 34.892 26.5201 34.8056 26.6324 34.649C26.8096 34.3953 26.7328 34.0605 26.4611 33.8985ZM28.9418 34.5843C28.7646 34.5789 28.5815 34.5681 28.4102 34.5465C28.0854 34.5087 27.79 34.7192 27.7487 35.0108C27.7074 35.3078 27.9377 35.5778 28.2567 35.6156C28.4693 35.6426 28.6819 35.6534 28.9005 35.6588H28.9182C29.2371 35.6588 29.497 35.4266 29.5088 35.135C29.5207 34.838 29.2667 34.5897 28.9418 34.5843ZM24.7836 26.4255C24.506 26.2689 24.1398 26.3553 23.9744 26.6091C23.8681 26.7711 23.7677 26.9223 23.6673 27.0627C23.496 27.3164 23.5787 27.6512 23.8563 27.8078C23.9508 27.8618 24.063 27.8888 24.1693 27.8888C24.3643 27.8888 24.5592 27.797 24.6714 27.635C24.7777 27.4784 24.884 27.3218 24.9844 27.1653C25.1557 26.9115 25.0612 26.5821 24.7836 26.4255ZM26.5792 21.8683C26.5083 22.0303 26.4375 22.1976 26.3666 22.3596C26.2425 22.635 26.3843 22.9536 26.6855 23.067C26.7623 23.094 26.8391 23.1102 26.91 23.1102C27.1403 23.1102 27.3589 22.986 27.4534 22.7754C27.5302 22.6026 27.6069 22.4298 27.6778 22.2624C27.796 21.9871 27.6424 21.6739 27.3412 21.5659C27.2526 21.5335 27.164 21.5227 27.0754 21.5335L26.8273 21.6091C26.721 21.6577 26.6265 21.7495 26.5792 21.8683Z" fill="#005BFF"/>
<path d="M23 0L0 15.2808L8.783 40H37.2111L45.9941 15.2808L23 0ZM23.5906 3.06695L42.6392 15.7181L40.0876 16.4849L23.5906 5.52916V3.06695ZM23.5906 6.86285L38.6995 16.9006L28.4753 19.9676C28.5108 19.8434 28.5403 19.7138 28.5698 19.5896C28.6348 19.2981 28.434 19.0119 28.115 18.9525C27.7961 18.8931 27.483 19.0767 27.4181 19.3682C27.3826 19.5302 27.3354 19.703 27.2881 19.8758C27.2468 20.027 27.2822 20.1836 27.3649 20.3024L24.4235 21.1879C24.2167 20.9233 23.9273 20.7235 23.5906 20.6101V6.86285ZM3.00051 16.7333L7.30046 17.9968C7.37724 17.635 7.50128 17.2948 7.67848 16.9708L3.37262 15.7073L22.4093 3.06155V11.9816C22.3739 11.9762 22.3444 11.9708 22.3089 11.9708C22.0963 11.96 21.8837 11.96 21.671 11.9654C21.3462 11.9762 21.0863 12.2246 21.0981 12.5216C21.1099 12.8186 21.3757 13.0562 21.7065 13.0454C21.8896 13.04 22.0727 13.04 22.2499 13.0508H22.2794C22.3266 13.0508 22.368 13.0454 22.4093 13.0346V20.6047C22.114 20.7019 21.86 20.8639 21.6651 21.0799L15.8354 19.3682C15.7704 19.73 15.6523 20.0756 15.4869 20.3996L21.2517 22.095V22.1058C21.2517 22.4946 21.4052 22.851 21.6592 23.1263L10.2833 37.2192L3.00051 16.7333ZM11.2519 37.8402L22.6869 23.6825C22.7874 23.6987 22.8937 23.7095 23 23.7095C23.1004 23.7095 23.2008 23.6987 23.3012 23.6879L29.509 31.5497C29.2786 31.9708 29.1487 32.446 29.1487 32.9482C29.1487 34.6706 30.6785 36.0691 32.5627 36.0691C32.728 36.0691 32.8934 36.0583 33.0529 36.0367L34.4764 37.8456H11.2519V37.8402ZM30.3241 32.9428C30.3241 32.8348 30.3358 32.7268 30.3535 32.6188C30.4244 32.1976 30.6429 31.8196 30.9501 31.5281C31.3576 31.1393 31.9307 30.9017 32.5627 30.9017C33.7971 30.9017 34.7953 31.8197 34.7953 32.9428C34.7953 33.7527 34.2754 34.4546 33.5194 34.784C33.23 34.9136 32.9051 34.9838 32.5566 34.9838C32.4326 34.9838 32.3145 34.973 32.1964 34.9568C31.1391 34.8002 30.3241 33.9579 30.3241 32.9428ZM35.634 37.4622L34.2224 35.6695C35.2678 35.135 35.9766 34.1145 35.9766 32.9428C35.9766 31.2203 34.4468 29.8218 32.5627 29.8218C31.6708 29.8218 30.8616 30.135 30.2532 30.6479L26.0891 25.3726C26.1186 25.3402 26.1482 25.3024 26.1718 25.2646C26.2663 25.1026 26.3608 24.9352 26.4494 24.7786C26.5971 24.514 26.4789 24.1901 26.1895 24.0551C25.9001 23.9201 25.5457 24.0281 25.398 24.2927C25.3744 24.3305 25.3508 24.3736 25.3331 24.4114L24.329 23.1425C24.5652 22.8888 24.7129 22.5702 24.7424 22.2246L26.8274 21.5983C26.9042 21.5551 26.9869 21.5281 27.0755 21.5227L42.9936 16.7441L35.634 37.4622Z" fill="#005BFF"/>
<path d="M14.0282 15.4104L13.9809 15.4536C14.3117 15.6588 14.607 15.9018 14.861 16.1771L14.8787 16.1609C15.1032 15.945 15.0972 15.6048 14.861 15.3996C14.6306 15.189 14.2585 15.1944 14.0282 15.4104ZM27.6073 16.8575C27.625 17.0141 27.6368 17.1815 27.6427 17.3488C27.6486 17.6404 27.9144 17.8726 28.2333 17.8726H28.2511C28.5759 17.8672 28.8358 17.6188 28.824 17.3164C28.8181 17.1167 28.8063 16.9223 28.7827 16.7333C28.7472 16.4363 28.4519 16.2257 28.1329 16.2581C27.8022 16.2905 27.5718 16.5605 27.6073 16.8575ZM16.2372 14.9082C16.3553 14.9082 16.4794 14.8758 16.5857 14.8056C16.7393 14.7031 16.8928 14.6059 17.0523 14.5087C17.324 14.3467 17.4008 14.0119 17.2177 13.7581C17.0405 13.5098 16.6684 13.4396 16.3967 13.6069C16.2254 13.7095 16.0541 13.8175 15.8887 13.9309C15.6229 14.1091 15.5639 14.4439 15.7588 14.6869C15.8769 14.8326 16.06 14.9082 16.2372 14.9082ZM24.8962 13.6339C24.9729 13.6663 25.0556 13.6825 25.1324 13.6825C25.3569 13.6825 25.5754 13.5637 25.6758 13.3586C25.8058 13.0832 25.6758 12.7646 25.3746 12.6458C25.1797 12.5702 24.9848 12.4946 24.7898 12.4298C24.4827 12.3272 24.146 12.473 24.0338 12.7538C23.9216 13.0346 24.0811 13.3424 24.3882 13.445C24.5536 13.5044 24.7249 13.5691 24.8962 13.6339ZM26.9398 15.0756C27.052 15.2322 27.2411 15.3186 27.4301 15.3186C27.5423 15.3186 27.6545 15.2916 27.7549 15.2268C28.0266 15.0594 28.0975 14.7247 27.9203 14.4763C27.7963 14.3089 27.6604 14.1415 27.5068 13.9903C27.2883 13.7689 26.9162 13.7473 26.674 13.9471C26.4319 14.1469 26.4082 14.4871 26.6268 14.7085C26.739 14.8218 26.8453 14.946 26.9398 15.0756ZM18.8124 13.6015C18.8833 13.6015 18.9542 13.5907 19.0251 13.5637C19.1964 13.5043 19.3736 13.445 19.5449 13.391C19.8579 13.2992 20.0233 12.9968 19.9288 12.7106C19.8284 12.4244 19.4976 12.2678 19.1846 12.3596C18.9896 12.419 18.7888 12.4838 18.5939 12.554C18.2927 12.662 18.1391 12.9752 18.2572 13.256C18.3576 13.472 18.5762 13.6015 18.8124 13.6015ZM26.8274 21.5983L27.0755 21.5227C26.9869 21.5335 26.9042 21.5551 26.8274 21.5983Z" fill="#005BFF"/>
<path d="M14.7138 18.7365C14.7138 17.149 13.2962 15.8531 11.5597 15.8531C10.3902 15.8531 9.36841 16.4417 8.8191 17.311L14.6961 19.0389C14.7079 18.9363 14.7138 18.8391 14.7138 18.7365ZM8.40565 18.7365C8.40565 20.324 9.82321 21.6199 11.5597 21.6199C12.7706 21.6199 13.8278 20.9881 14.3535 20.0702L8.43518 18.3315C8.41746 18.4611 8.40565 18.5961 8.40565 18.7365Z" fill="white"/>
<path d="M14.3527 20.0702C14.5358 19.757 14.654 19.406 14.6953 19.0388L8.81832 17.311C8.6234 17.6188 8.49346 17.9643 8.4344 18.3315L14.3527 20.0702Z" fill="white"/>
<path d="M14.861 16.1771C14.607 15.9018 14.3117 15.6588 13.9809 15.4536C13.2898 15.0216 12.4512 14.7732 11.5534 14.7732C9.85823 14.7732 8.3816 15.6695 7.67282 16.9708C7.49562 17.2894 7.37158 17.635 7.2948 17.9967C7.24755 18.2343 7.21801 18.4827 7.21801 18.7365C7.21801 20.9233 9.16126 22.6998 11.5534 22.6998C13.2899 22.6998 14.7961 21.7602 15.4871 20.4049C15.6525 20.081 15.7707 19.7354 15.8356 19.3736C15.8711 19.1684 15.8947 18.9525 15.8947 18.7365C15.8947 17.7591 15.5048 16.8683 14.861 16.1771ZM14.6957 19.0334C14.6543 19.4006 14.5362 19.7516 14.3531 20.0648C13.8274 20.9827 12.7701 21.6144 11.5593 21.6144C9.82279 21.6144 8.40522 20.3185 8.40522 18.7311C8.40522 18.5907 8.41704 18.4557 8.43476 18.3261C8.49382 17.9589 8.62377 17.6134 8.81868 17.3056C9.36208 16.4363 10.3839 15.8477 11.5593 15.8477C13.2958 15.8477 14.7134 17.1436 14.7134 18.7311C14.7134 18.8391 14.7075 18.9363 14.6957 19.0334Z" fill="#FFD200"/>
</svg>
