<svg width="47" height="40" viewBox="0 0 47 40" fill="none" xmlns="http://www.w3.org/2000/svg">
<path d="M32.9033 12.6145C30.1299 12.6145 23.0056 10.4418 22.1216 10.1716C20.0068 9.58247 14.1479 8.05836 12.1891 8.05836C10.3633 8.05836 5.31909 9.27441 2.70742 9.95539V35.0925C5.18619 34.4493 9.97039 33.2819 12.0505 33.2819C14.743 33.2819 21.9829 35.26 22.7976 35.487L22.8149 35.4924C25.0799 36.1572 31.4415 37.8705 33.6371 37.8381C35.3301 37.811 39.8485 36.4923 42.2002 35.7519V10.6148C39.733 11.3336 35.0412 12.6145 32.9033 12.6145Z" fill="white"/>
<path d="M44.5165 7.64227L42.9969 8.11248C40.8879 8.76104 34.9597 10.4527 32.9027 10.4527C30.8515 10.4527 24.9406 8.76104 22.8316 8.11248L22.8027 8.10167C21.9996 7.87467 14.8522 5.89657 12.1885 5.89657C9.44397 5.89657 2.06544 7.87467 1.2334 8.10167L0.401367 8.32867V37.9678L1.88054 37.5625C4.02418 36.9734 10.0391 35.4439 12.0556 35.4439C14.049 35.4439 20.0004 36.968 22.1383 37.5571C23.0454 37.8219 30.5684 40 33.5903 40H33.6828C36.3002 39.9568 42.9911 37.7895 43.7481 37.5463L44.5223 37.2923L44.5165 7.64227ZM22.8143 35.4925L22.797 35.4871C21.9823 35.2601 14.7424 33.282 12.0499 33.282C9.96977 33.282 5.18557 34.4494 2.7068 35.0926V9.95547C5.31846 9.27448 10.3627 8.05843 12.1885 8.05843C14.1531 8.05843 20.012 9.57714 22.1209 10.1717C23.005 10.4419 30.1293 12.6146 32.9027 12.6146C35.0348 12.6146 39.7323 11.3391 42.1995 10.6202V35.7519C39.8421 36.4924 35.3295 37.8111 33.6365 37.8381C31.4409 37.8706 25.0793 36.1573 22.8143 35.4925Z" fill="#005BFF"/>
<path d="M34.9427 2.16734C29.8984 2.16734 25.7903 6.00465 25.7903 10.7283C25.7903 14.3927 28.2806 17.6517 31.9901 18.8299C32.4119 18.965 33.059 19.3055 34.336 20.7756C34.5382 21.008 34.7346 21.2458 34.9138 21.4674C36.653 19.2028 37.433 18.9704 37.7161 18.884C41.5585 17.7436 44.1181 14.4359 44.0893 10.6635C44.0546 5.97763 39.9464 2.16734 34.9427 2.16734Z" fill="white"/>
<path d="M43.0207 3.10768C40.8655 1.10255 37.9939 0 34.9431 0C28.6219 0 23.4795 4.81015 23.4795 10.7229C23.4795 15.306 26.5938 19.3811 31.222 20.8674C31.5976 21.0512 32.7012 22.2132 33.9088 23.8562C34.1399 24.1751 34.527 24.3588 34.9373 24.3588H34.9546C35.3706 24.3534 35.7578 24.1534 35.9831 23.8292C37.0809 22.251 38.0921 21.1268 38.4561 20.9269C40.7211 20.2459 42.7492 18.8785 44.1706 17.0787C45.6497 15.2033 46.424 12.9766 46.4009 10.6418C46.3778 7.78812 45.1817 5.11281 43.0207 3.10768ZM31.9901 18.8299C28.2806 17.6463 25.7903 14.3927 25.7903 10.7283C25.7903 6.01006 29.8927 2.16734 34.9427 2.16734C39.9522 2.16734 44.055 5.97756 44.0954 10.6634C44.1243 14.4413 41.5647 17.7435 37.7223 18.8839C37.4392 18.9704 36.6533 19.2028 34.9199 21.4673C34.7408 21.2457 34.5444 21.0079 34.3421 20.7755C33.0594 19.3055 32.4119 18.965 31.9901 18.8299Z" fill="#005BFF"/>
<path d="M39.3158 14.9602C39.1771 14.9602 39.0384 14.9116 38.9286 14.8197C38.6917 14.6197 38.6744 14.2792 38.8882 14.0576C39.7838 13.1334 40.2691 11.9336 40.2634 10.6797C40.2403 7.95576 37.8539 5.73984 34.9418 5.73984C34.2022 5.73984 33.4858 5.88037 32.8155 6.1506C32.5208 6.2695 32.1799 6.14519 32.0528 5.86956C31.9257 5.59392 32.0586 5.27504 32.3533 5.15614C33.1737 4.82105 34.0404 4.65351 34.9418 4.65351C36.6694 4.65351 38.2873 5.27504 39.5064 6.41002C40.7256 7.5396 41.4016 9.0529 41.419 10.6689C41.4305 12.193 40.8354 13.6523 39.7491 14.7764C39.6278 14.9008 39.4718 14.9602 39.3158 14.9602Z" fill="#FFD200"/>
<path d="M6.01148 25.5695C5.98259 25.5695 5.9537 25.5695 5.91903 25.5641C5.60124 25.5155 5.38746 25.2398 5.43946 24.948C5.43946 24.9426 5.45679 24.8399 5.49146 24.6615C5.54924 24.3697 5.85547 24.1751 6.16749 24.2346C6.4795 24.2886 6.68751 24.5751 6.62395 24.8669C6.58928 25.0236 6.57773 25.1101 6.57773 25.1155C6.53728 25.3804 6.28883 25.5695 6.01148 25.5695ZM33.1855 34.3845H33.0122C32.8619 34.3845 32.7117 34.3737 32.5672 34.3629C32.2495 34.3413 32.0126 34.0819 32.0357 33.7846C32.0588 33.4874 32.3361 33.2658 32.6539 33.2874C32.781 33.2982 32.9082 33.3036 33.0295 33.3036H33.1855C33.5033 33.3036 33.7633 33.5468 33.7575 33.8495C33.7633 34.1467 33.5033 34.3845 33.1855 34.3845ZM35.4736 34.1521C35.2136 34.1521 34.9767 33.9846 34.9131 33.7414C34.838 33.4495 35.0287 33.1577 35.3407 33.0874C35.514 33.0496 35.6874 33.0009 35.8549 32.9523C36.1612 32.8604 36.4847 33.0172 36.583 33.2982C36.6812 33.5846 36.5136 33.8873 36.2132 33.9792C36.0225 34.0386 35.8203 34.0927 35.618 34.1359C35.5603 34.1467 35.514 34.1521 35.4736 34.1521ZM30.3832 33.8441C30.308 33.8441 30.2272 33.8279 30.152 33.8008C29.9671 33.7252 29.7765 33.6387 29.5916 33.5468C29.3084 33.4063 29.2044 33.0766 29.3547 32.8172C29.5049 32.5524 29.8574 32.4551 30.1347 32.5956C30.2907 32.6767 30.4525 32.7469 30.6143 32.8118C30.909 32.9307 31.0419 33.2496 30.9147 33.5252C30.8165 33.7252 30.6085 33.8441 30.3832 33.8441ZM38.0621 33.0117C37.8888 33.0117 37.7212 32.9415 37.6057 32.8064C37.4092 32.574 37.4555 32.2335 37.7039 32.0497C37.8426 31.9524 37.9697 31.8443 38.0968 31.7308C38.3279 31.5255 38.6919 31.5309 38.9115 31.7471C39.1311 31.9632 39.1253 32.3037 38.8942 32.5091C38.7439 32.6442 38.5822 32.7739 38.4146 32.8983C38.3106 32.9739 38.1835 33.0117 38.0621 33.0117ZM28.0142 32.3308C27.8697 32.3308 27.7253 32.2821 27.6097 32.1794C27.4653 32.0497 27.3208 31.9092 27.1821 31.7687C26.9684 31.5471 26.9799 31.2066 27.2168 31.0066C27.4537 30.8066 27.8177 30.8175 28.0315 31.039C28.1528 31.1634 28.28 31.2877 28.4071 31.4012C28.6382 31.6065 28.644 31.9524 28.4186 32.1632C28.3146 32.2767 28.1644 32.3308 28.0142 32.3308ZM39.8071 30.8985C39.732 30.8985 39.6511 30.8823 39.576 30.8499C39.2813 30.731 39.1542 30.4121 39.2813 30.1365C39.3506 29.9905 39.4142 29.8338 39.472 29.6771C39.576 29.396 39.8996 29.2447 40.2058 29.3366C40.5062 29.4339 40.668 29.7365 40.5698 30.023C40.5005 30.2067 40.4254 30.3959 40.3445 30.5688C40.2405 30.7796 40.0267 30.8985 39.8071 30.8985ZM26.2577 30.2067C26.0554 30.2067 25.8647 30.1094 25.755 29.9365C25.651 29.7689 25.5585 29.6014 25.4661 29.4339C25.3216 29.169 25.443 28.8448 25.7261 28.7096C26.0092 28.5745 26.3559 28.688 26.5003 28.9528C26.5812 29.1042 26.6679 29.2555 26.7546 29.4014C26.9106 29.6609 26.8181 29.9905 26.5408 30.1365C26.4541 30.1797 26.3559 30.2067 26.2577 30.2067ZM25.2407 27.6882C24.9807 27.6882 24.7496 27.526 24.6803 27.2828C24.634 27.1207 24.5878 26.9477 24.5358 26.7748C24.4491 26.4883 24.6283 26.1911 24.9345 26.11C25.2407 26.0289 25.5585 26.1965 25.6452 26.4829C25.703 26.6667 25.7492 26.845 25.8012 27.018C25.8821 27.3098 25.6914 27.6017 25.3852 27.6773C25.339 27.6827 25.2927 27.6882 25.2407 27.6882ZM24.3798 25.1101C24.1429 25.1101 23.9233 24.975 23.8367 24.7534C23.7731 24.5859 23.7038 24.4237 23.6344 24.2562C23.5189 23.9805 23.6633 23.6671 23.9638 23.5536C24.2585 23.4455 24.5936 23.5806 24.7149 23.8616C24.7843 24.0292 24.8536 24.2075 24.9229 24.3751C25.0327 24.6561 24.8767 24.9642 24.582 25.0669C24.5127 25.0993 24.4491 25.1101 24.3798 25.1101ZM6.63551 23.2185C6.57773 23.2185 6.51995 23.2077 6.46217 23.1915C6.15593 23.0996 5.98837 22.7969 6.0866 22.5105C6.14438 22.3321 6.20793 22.1592 6.27727 21.9862C6.38128 21.7052 6.71062 21.5539 7.01108 21.6565C7.31154 21.7538 7.47332 22.0619 7.36354 22.3429C7.29998 22.5051 7.2422 22.6726 7.18442 22.8402C7.10931 23.0726 6.88396 23.2185 6.63551 23.2185ZM23.2473 22.624C23.0335 22.624 22.8313 22.5159 22.7273 22.3213C22.6464 22.1646 22.5597 22.0078 22.4731 21.8511C22.3228 21.5863 22.4326 21.262 22.7157 21.1215C22.9989 20.981 23.3455 21.0836 23.4958 21.3485C23.5882 21.5106 23.6749 21.6782 23.7616 21.8403C23.9002 22.1105 23.7847 22.4294 23.5015 22.5645C23.4206 22.6078 23.334 22.624 23.2473 22.624ZM7.716 20.7161C7.62933 20.7161 7.53688 20.6999 7.45599 20.6567C7.17286 20.5216 7.0573 20.1973 7.20175 19.9325C7.2942 19.7649 7.38665 19.5974 7.48488 19.4352C7.64088 19.1758 7.99334 19.0785 8.27069 19.2244C8.54803 19.3704 8.65204 19.7001 8.49603 19.9595C8.40936 20.1054 8.32269 20.2621 8.23602 20.4189C8.13201 20.608 7.92401 20.7161 7.716 20.7161ZM21.8028 20.2946C21.6179 20.2946 21.4388 20.2135 21.3232 20.0622C21.2192 19.9162 21.1094 19.7757 20.9997 19.6352C20.809 19.3974 20.8668 19.0569 21.121 18.8785C21.3752 18.7002 21.7392 18.7542 21.9299 18.992C22.0455 19.138 22.161 19.2947 22.2766 19.446C22.4557 19.6946 22.3922 20.0297 22.1264 20.1973C22.0281 20.2621 21.9126 20.2946 21.8028 20.2946ZM9.28184 18.4624C9.14894 18.4624 9.01605 18.4191 8.90627 18.3327C8.66359 18.1381 8.6347 17.7976 8.83693 17.5706C8.96983 17.4247 9.1085 17.2788 9.24717 17.1436C9.46674 16.9275 9.83653 16.9221 10.0619 17.1274C10.293 17.3328 10.2988 17.6787 10.0792 17.8895C9.95787 18.0084 9.83653 18.1327 9.71519 18.2624C9.61119 18.3975 9.4494 18.4624 9.28184 18.4624ZM19.9481 18.23C19.8036 18.23 19.6649 18.1813 19.5494 18.0841C19.4165 17.9652 19.2778 17.8517 19.1449 17.7436C18.9022 17.549 18.8733 17.2085 19.0814 16.9815C19.2894 16.7545 19.6534 16.7275 19.8961 16.9221C20.0463 17.041 20.2023 17.1707 20.3467 17.3004C20.5779 17.5058 20.5894 17.8463 20.3699 18.0624C20.2543 18.1759 20.0983 18.23 19.9481 18.23ZM11.489 16.7491C11.281 16.7491 11.0846 16.6464 10.9806 16.4627C10.8303 16.1978 10.9344 15.8736 11.2175 15.733C11.4024 15.6412 11.593 15.5547 11.7837 15.479C12.0784 15.3601 12.4193 15.4898 12.5406 15.7655C12.662 16.0411 12.5291 16.36 12.2344 16.4735C12.0784 16.5383 11.9166 16.6086 11.7606 16.6843C11.6739 16.7275 11.5815 16.7491 11.489 16.7491ZM17.5964 16.6951C17.5155 16.6951 17.4288 16.6788 17.348 16.641C17.1862 16.5708 17.0244 16.5059 16.8568 16.4464C16.5564 16.3384 16.4061 16.0303 16.5217 15.7492C16.6373 15.4682 16.9666 15.3277 17.2671 15.4358C17.4577 15.506 17.6484 15.5817 17.8391 15.6628C18.128 15.7925 18.2493 16.1114 18.1164 16.3816C18.0182 16.5816 17.8102 16.6951 17.5964 16.6951ZM14.823 16.0519H14.7478C14.5918 16.0465 14.4243 16.0465 14.2683 16.0519C13.9505 16.0627 13.6789 15.8303 13.6674 15.5331C13.6558 15.2358 13.9043 14.9818 14.222 14.971C14.4127 14.9656 14.6034 14.9656 14.7883 14.971H14.8403C15.1581 14.9818 15.4065 15.2358 15.395 15.5331C15.3834 15.8249 15.1292 16.0519 14.823 16.0519ZM40.3965 28.2827H40.3791C40.0613 28.2719 39.8071 28.0232 39.8187 27.726C39.8187 27.6449 39.8244 27.5584 39.8244 27.472C39.8244 27.1747 40.0787 26.9315 40.4022 26.9315C40.72 26.9315 40.98 27.1747 40.98 27.472C40.98 27.5692 40.98 27.6665 40.9743 27.7584C40.9685 28.0503 40.7085 28.2827 40.3965 28.2827Z" fill="#005BFF"/>
<path d="M6.01197 27.2342C5.24927 27.2342 4.62524 27.8179 4.62524 28.5313C4.62524 29.2447 5.24927 29.8284 6.01197 29.8284C6.77466 29.8284 7.39869 29.2447 7.39869 28.5313C7.39869 27.8179 6.77466 27.2342 6.01197 27.2342Z" fill="#FFD200"/>
<path d="M6.01235 26.1532C4.61407 26.1532 3.47002 27.218 3.47002 28.5313C3.47002 29.8446 4.60829 30.9093 6.01235 30.9093C7.41641 30.9093 8.55468 29.8446 8.55468 28.5313C8.55468 27.218 7.41063 26.1532 6.01235 26.1532ZM6.01235 29.823C5.24965 29.823 4.62563 29.2393 4.62563 28.5259C4.62563 27.8125 5.24965 27.2288 6.01235 27.2288C6.77505 27.2288 7.39907 27.8125 7.39907 28.5259C7.39907 29.2393 6.77505 29.823 6.01235 29.823Z" fill="#005BFF"/>
<path d="M23.716 22.0079C22.6586 22.0079 21.8034 22.8132 21.8034 23.7968C21.8034 24.7805 22.6644 25.5857 23.716 25.5857C24.7733 25.5857 25.6285 24.7805 25.6285 23.7968C25.6285 22.8132 24.7733 22.0079 23.716 22.0079Z" fill="#FFD200"/>
<path d="M23.716 20.9269C22.023 20.9269 20.6479 22.2132 20.6479 23.7967C20.6479 25.3803 22.023 26.6666 23.716 26.6666C25.4089 26.6666 26.7841 25.3803 26.7841 23.7967C26.7841 22.2132 25.4089 20.9269 23.716 20.9269ZM23.716 25.5911C22.6586 25.5911 21.8035 24.7858 21.8035 23.8021C21.8035 22.8185 22.6644 22.0132 23.716 22.0132C24.7734 22.0132 25.6285 22.8185 25.6285 23.8021C25.6285 24.7858 24.7734 25.5911 23.716 25.5911Z" fill="#005BFF"/>
</svg>
