<svg width="47" height="40" viewBox="0 0 47 40" fill="none" xmlns="http://www.w3.org/2000/svg">
<path d="M42.9475 2.22569H4.32771C3.45789 2.22569 2.74623 2.97757 2.74623 3.89653V30.8027C2.74623 31.7217 3.45789 32.4735 4.32771 32.4735H42.9475C43.8173 32.4735 44.5289 31.7217 44.5289 30.8027V3.89653C44.5289 2.97757 43.8173 2.22569 42.9475 2.22569Z" fill="white"/>
<path d="M4.32771 32.4735H42.9475C43.8173 32.4735 44.5289 31.7217 44.5289 30.8027V29.5718H2.74623V30.8027C2.74623 31.7272 3.45789 32.4735 4.32771 32.4735Z" fill="#E6E6E6"/>
<path d="M42.9476 -0.0020752H4.32782C2.29298 -0.0020752 0.637695 1.74674 0.637695 3.89656V30.8027C0.637695 32.9525 2.29298 34.7014 4.32782 34.7014H42.9476C44.9824 34.7014 46.6377 32.9525 46.6377 30.8027V3.89656C46.6377 1.74674 44.9824 -0.0020752 42.9476 -0.0020752ZM44.5289 29.5718V30.8027C44.5289 31.7217 43.8173 32.4735 42.9475 32.4735H4.32771C3.45789 32.4735 2.74623 31.7217 2.74623 30.8027V3.89653C2.74623 2.97757 3.45789 2.22569 4.32771 2.22569H42.9475C43.8173 2.22569 44.5289 2.97757 44.5289 3.89653V29.5718ZM32.3886 39.9979H14.8868C14.307 39.9979 13.8325 39.4967 13.8325 38.884C13.8325 38.2714 14.307 37.7701 14.8868 37.7701H32.3886C32.9684 37.7701 33.4429 38.2714 33.4429 38.884C33.4429 39.4967 32.9684 39.9979 32.3886 39.9979Z" fill="#005BFF"/>
<path d="M3.34721 28.3912C3.20488 28.3912 3.06255 28.3299 2.96238 28.2129C2.76734 27.9846 2.77788 27.6337 2.99401 27.4277L15.4614 15.1971L21.0545 21.6632L34.7027 5.47276L44.3866 16.4056C44.587 16.6284 44.5764 16.9849 44.3655 17.1909C44.1547 17.4026 43.8226 17.3914 43.6222 17.1687L34.7238 7.12133L21.0703 23.3229L15.3981 16.7677L3.70568 28.2408C3.60025 28.341 3.47373 28.3912 3.34721 28.3912Z" fill="#FFD200"/>
<path d="M4.89127 21.6632C4.89127 22.8863 5.35058 24.0592 6.16817 24.924C6.98575 25.7889 8.09464 26.2747 9.25088 26.2747C10.4071 26.2747 11.516 25.7889 12.3336 24.924C13.1512 24.0592 13.6105 22.8863 13.6105 21.6632C13.6105 20.4401 13.1512 19.2672 12.3336 18.4024C11.516 17.5375 10.4071 17.0517 9.25088 17.0517C8.09464 17.0517 6.98575 17.5375 6.16817 18.4024C5.35058 19.2672 4.89127 20.4401 4.89127 21.6632Z" fill="#D7E7FF"/>
<path d="M6.12523 21.6632C6.12523 22.0969 6.20609 22.5263 6.36319 22.927C6.52029 23.3277 6.75055 23.6918 7.04083 23.9985C7.33112 24.3052 7.67573 24.5485 8.055 24.7145C8.43427 24.8804 8.84077 24.9659 9.25129 24.9659C9.66181 24.9659 10.0683 24.8804 10.4476 24.7145C10.8269 24.5485 11.1715 24.3052 11.4618 23.9985C11.752 23.6918 11.9823 23.3277 12.1394 22.927C12.2965 22.5263 12.3774 22.0969 12.3774 21.6632C12.3774 20.7872 12.048 19.9472 11.4618 19.3278C10.8755 18.7084 10.0804 18.3605 9.25129 18.3605C8.42221 18.3605 7.62708 18.7084 7.04083 19.3278C6.45458 19.9472 6.12523 20.7872 6.12523 21.6632Z" fill="#B5CFF4"/>
<path d="M7.65898 21.6632C7.65898 21.8848 7.70016 22.1043 7.78017 22.309C7.86018 22.5137 7.97744 22.6998 8.12528 22.8565C8.27311 23.0132 8.44861 23.1375 8.64177 23.2223C8.83492 23.3071 9.04194 23.3508 9.25101 23.3508C9.46008 23.3508 9.6671 23.3071 9.86025 23.2223C10.0534 23.1375 10.2289 23.0132 10.3767 22.8565C10.5246 22.6998 10.6418 22.5137 10.7218 22.309C10.8019 22.1043 10.843 21.8848 10.843 21.6632C10.843 21.4416 10.8019 21.2221 10.7218 21.0174C10.6418 20.8127 10.5246 20.6266 10.3767 20.4699C10.2289 20.3132 10.0534 20.1889 9.86025 20.1041C9.6671 20.0193 9.46008 19.9757 9.25101 19.9757C9.04194 19.9757 8.83492 20.0193 8.64177 20.1041C8.44861 20.1889 8.27311 20.3132 8.12528 20.4699C7.97744 20.6266 7.86018 20.8127 7.78017 21.0174C7.70016 21.2221 7.65898 21.4416 7.65898 21.6632Z" fill="#005BFF"/>
<path d="M27.2698 9.85595C27.2698 10.4615 27.3826 11.0612 27.6017 11.6207C27.8208 12.1802 28.1419 12.6886 28.5467 13.1168C28.9515 13.545 29.4321 13.8847 29.9611 14.1164C30.49 14.3482 31.0569 14.4675 31.6294 14.4675C32.2019 14.4675 32.7689 14.3482 33.2978 14.1164C33.8267 13.8847 34.3073 13.545 34.7121 13.1168C35.117 12.6886 35.4381 12.1802 35.6572 11.6207C35.8763 11.0612 35.989 10.4615 35.989 9.85595C35.989 9.25035 35.8763 8.65069 35.6572 8.09119C35.4381 7.5317 35.117 7.02333 34.7121 6.59511C34.3073 6.16689 33.8267 5.8272 33.2978 5.59545C32.7689 5.3637 32.2019 5.24442 31.6294 5.24442C31.0569 5.24442 30.49 5.3637 29.9611 5.59545C29.4321 5.8272 28.9515 6.16689 28.5467 6.59511C28.1419 7.02333 27.8208 7.5317 27.6017 8.09119C27.3826 8.65069 27.2698 9.25035 27.2698 9.85595Z" fill="#D7E7FF"/>
<path d="M28.5031 9.85586C28.5031 10.7318 28.8325 11.5718 29.4187 12.1912C30.005 12.8106 30.8001 13.1586 31.6292 13.1586C32.4583 13.1586 33.2534 12.8106 33.8396 12.1912C34.4259 11.5718 34.7552 10.7318 34.7552 9.85586C34.7552 8.97993 34.4259 8.13987 33.8396 7.52049C33.2534 6.90112 32.4583 6.55316 31.6292 6.55316C30.8001 6.55316 30.005 6.90112 29.4187 7.52049C28.8325 8.13987 28.5031 8.97993 28.5031 9.85586Z" fill="#B5CFF4"/>
<path d="M30.0372 9.8559C30.0372 10.3035 30.2049 10.7327 30.5035 11.0492C30.8021 11.3657 31.207 11.5435 31.6292 11.5435C32.0515 11.5435 32.4564 11.3657 32.755 11.0492C33.0535 10.7327 33.2212 10.3035 33.2212 9.8559C33.2212 9.40834 33.0535 8.9791 32.755 8.66263C32.4564 8.34615 32.0515 8.16835 31.6292 8.16835C31.207 8.16835 30.8021 8.34615 30.5035 8.66263C30.2049 8.9791 30.0372 9.40834 30.0372 9.8559Z" fill="#005BFF"/>
<path d="M34.5658 21.535C34.5658 22.2204 34.8229 22.8777 35.2806 23.3623C35.7384 23.847 36.3592 24.1192 37.0065 24.1192C37.6538 24.1192 38.2747 23.847 38.7324 23.3623C39.1901 22.8777 39.4473 22.2204 39.4473 21.535C39.4473 20.8496 39.1901 20.1923 38.7324 19.7077C38.2747 19.223 37.6538 18.9508 37.0065 18.9508C36.3592 18.9508 35.7384 19.223 35.2806 19.7077C34.8229 20.1923 34.5658 20.8496 34.5658 21.535Z" fill="#D7E7FF"/>
<path d="M35.2558 21.535C35.2558 22.0254 35.4402 22.4957 35.7684 22.8425C36.0966 23.1893 36.5418 23.3841 37.0059 23.3841C37.4701 23.3841 37.9153 23.1893 38.2435 22.8425C38.5717 22.4957 38.7561 22.0254 38.7561 21.535C38.7561 21.0446 38.5717 20.5743 38.2435 20.2275C37.9153 19.8808 37.4701 19.686 37.0059 19.686C36.5418 19.686 36.0966 19.8808 35.7684 20.2275C35.4402 20.5743 35.2558 21.0446 35.2558 21.535Z" fill="#B5CFF4"/>
<path d="M36.1149 21.535C36.1149 21.7861 36.2088 22.027 36.3759 22.2045C36.5429 22.3821 36.7695 22.4818 37.0058 22.4818C37.2421 22.4818 37.4687 22.3821 37.6358 22.2045C37.8029 22.027 37.8967 21.7861 37.8967 21.535C37.8967 21.2839 37.8029 21.0431 37.6358 20.8655C37.4687 20.688 37.2421 20.5882 37.0058 20.5882C36.7695 20.5882 36.5429 20.688 36.3759 20.8655C36.2088 21.0431 36.1149 21.2839 36.1149 21.535Z" fill="#005BFF"/>
<path d="M19.6729 31.5879H11.154C10.8904 31.5879 10.6795 31.3651 10.6795 31.0867C10.6795 30.8082 10.8904 30.5854 11.154 30.5854H19.6729C19.9364 30.5854 20.1473 30.8082 20.1473 31.0867C20.1473 31.3596 19.9312 31.5879 19.6729 31.5879ZM8.27567 31.5879H6.87869C6.61511 31.5879 6.40425 31.3651 6.40425 31.0867C6.40425 30.8082 6.61511 30.5854 6.87869 30.5854H8.27567C8.53925 30.5854 8.75011 30.8082 8.75011 31.0867C8.75011 31.3596 8.53398 31.5879 8.27567 31.5879Z" fill="white"/>
</svg>
